/* XPM */
static char *e100c9591ada4708d10c72372dcfaa60nlZdCw9IRMKjN2eI[] = {
/* columns rows colors chars-per-pixel */
"8 8 2 1 ",
". c black",
"o c white",
/* pixels */
"........",
".oooooo.",
".oooooo.",
".oooooo.",
".oooooo.",
".oooooo.",
".oooooo.",
"........",
};
